<svg width="120" height="120" viewBox="0 0 120 120" fill="none" xmlns="http://www.w3.org/2000/svg">
<path d="M2 102.033C2 110.131 8.639 116.693 16.8283 116.693H102.171C110.362 116.693 117 110.13 117 102.033V17.6602C117 9.56267 110.361 3 102.172 3H16.8287C8.6381 3 2 9.56356 2 17.6598V102.033V102.033Z" fill="#563D7C"/>
<path d="M49.6884 53.2906V37.1901H64.0234C65.3891 37.1901 66.7053 37.3025 67.973 37.5276C69.2406 37.7523 70.3624 38.1538 71.3376 38.7325C72.3124 39.3112 73.0927 40.1146 73.678 41.1427C74.2629 42.1713 74.5558 43.489 74.5558 45.0953C74.5558 47.9878 73.678 50.077 71.9225 51.3622C70.1674 52.6479 67.9244 53.2906 65.1936 53.2906H49.6884V53.2906ZM34.3777 25.4277V94.2654H68.1194C71.2401 94.2654 74.2795 93.8799 77.2376 93.1085C80.1958 92.3371 82.8286 91.1482 85.1367 89.5414C87.4443 87.9346 89.2812 85.8614 90.6464 83.3229C92.012 80.7839 92.6944 77.779 92.6944 74.3083C92.6944 70.0017 91.6378 66.3222 89.5251 63.2694C87.412 60.2161 84.21 58.079 79.919 56.8577C83.0398 55.3797 85.3968 53.4833 86.9897 51.1695C88.5822 48.8556 89.3787 45.9636 89.3787 42.4924C89.3787 39.2788 88.8423 36.5794 87.7696 34.394C86.6968 32.2089 85.1852 30.4573 83.2347 29.1396C81.2847 27.822 78.9442 26.8738 76.2134 26.2955C73.4831 25.7169 70.4598 25.4277 67.1442 25.4277H34.3777V25.4277ZM49.6884 82.503V63.6064H66.3639C69.6795 63.6064 72.3452 64.3614 74.3608 65.8723C76.376 67.3827 77.3841 69.9053 77.3841 73.4405C77.3841 75.2404 77.075 76.7185 76.4574 77.8754C75.8397 79.0323 75.0109 79.9485 73.9705 80.6231C72.9305 81.2982 71.7275 81.78 70.3623 82.0696C68.9967 82.3583 67.5669 82.503 66.0714 82.503H49.6884V82.503Z" fill="white"/>
</svg>
