<svg width="115" height="115" viewBox="0 0 115 115" fill="none" xmlns="http://www.w3.org/2000/svg">
<g clip-path="url(#clip0_117_232)">
<path d="M53.7382 0.0897561C53.4911 0.112215 52.7051 0.19082 51.9976 0.246967C35.6813 1.71802 20.3982 10.5218 10.7184 24.0532C5.32834 31.5769 1.88093 40.1112 0.578319 49.1509C0.117914 52.3063 0.0617676 53.2384 0.0617676 57.5168C0.0617676 61.7952 0.117914 62.7272 0.578319 65.8826C3.70008 87.4543 19.0506 105.578 39.8699 112.294C43.598 113.495 47.5283 114.315 51.9976 114.809C53.7382 115 61.2618 115 63.0024 114.809C70.717 113.956 77.2525 112.047 83.6981 108.756C84.6863 108.251 84.8772 108.116 84.7425 108.004C84.6526 107.937 80.4416 102.288 75.3884 95.4608L66.2028 83.0524L54.6927 66.0174C48.3593 56.6521 43.1489 48.9937 43.1039 48.9937C43.059 48.9824 43.0141 56.551 42.9917 65.7928C42.958 81.9743 42.9467 82.6256 42.7446 83.0074C42.4526 83.5577 42.2281 83.7823 41.7564 84.0293C41.3971 84.209 41.0827 84.2427 39.387 84.2427H37.4443L36.9278 83.917C36.5909 83.7037 36.3439 83.4229 36.1754 83.0973L35.9396 82.592L35.9621 60.0771L35.9958 37.5509L36.3439 37.113C36.5235 36.8772 36.9053 36.574 37.1748 36.428C37.6352 36.2034 37.8149 36.181 39.7576 36.181C42.0484 36.181 42.4302 36.2708 43.0253 36.9221C43.1938 37.1018 49.4261 46.4895 56.8824 57.7975C64.3387 69.1055 74.535 84.5459 79.5433 92.1257L88.6391 105.904L89.0995 105.601C93.1757 102.951 97.4878 99.1777 100.902 95.2475C108.167 86.904 112.85 76.7302 114.422 65.8826C114.882 62.7272 114.938 61.7952 114.938 57.5168C114.938 53.2384 114.882 52.3063 114.422 49.1509C111.3 27.5793 95.9494 9.45505 75.1301 2.73989C71.4581 1.54957 67.5503 0.72983 63.1708 0.235738C62.0928 0.123444 54.6702 -7.88713e-05 53.7382 0.0897561ZM77.2525 34.8334C77.7915 35.1029 78.2294 35.6195 78.3866 36.1585C78.4765 36.4505 78.4989 42.694 78.4765 56.7644L78.4428 76.9548L74.8831 71.4973L71.3121 66.0399V51.3631C71.3121 41.8742 71.3571 36.5403 71.4244 36.282C71.6041 35.6532 71.9971 35.1591 72.5361 34.8671C72.9965 34.6313 73.165 34.6088 74.928 34.6088C76.5899 34.6088 76.8819 34.6313 77.2525 34.8334Z" fill="black"/>
<path d="M88.0776 106.151C87.6845 106.398 87.561 106.567 87.9091 106.376C88.1562 106.23 88.5604 105.927 88.493 105.916C88.4594 105.916 88.2685 106.028 88.0776 106.151ZM87.3027 106.657C87.1006 106.814 87.1006 106.825 87.3476 106.702C87.4824 106.634 87.5947 106.556 87.5947 106.533C87.5947 106.443 87.5386 106.466 87.3027 106.657ZM86.7413 106.994C86.5391 107.151 86.5391 107.162 86.7862 107.038C86.9209 106.971 87.0332 106.892 87.0332 106.87C87.0332 106.78 86.9771 106.803 86.7413 106.994ZM86.1798 107.33C85.9777 107.488 85.9777 107.499 86.2247 107.375C86.3595 107.308 86.4718 107.229 86.4718 107.207C86.4718 107.117 86.4156 107.14 86.1798 107.33ZM85.3264 107.78C84.8996 108.004 84.9221 108.094 85.3488 107.881C85.5397 107.78 85.6857 107.679 85.6857 107.656C85.6857 107.577 85.6745 107.589 85.3264 107.78Z" fill="black"/>
</g>
<defs>
<clipPath id="clip0_117_232">
<rect width="115" height="115" fill="white"/>
</clipPath>
</defs>
</svg>
