<svg width="120" height="120" viewBox="0 0 120 120" fill="none" xmlns="http://www.w3.org/2000/svg">
<path d="M80.6971 79.5627C84.5689 79.1619 87.5062 75.8242 87.3725 71.8184C87.2393 67.8131 83.9012 64.6086 79.8959 64.6086H79.6291C75.4898 64.7422 72.2857 68.2135 72.4193 72.3525C72.5529 74.3553 73.3537 76.091 74.5553 77.2926C70.016 86.2385 63.0734 92.7807 52.6594 98.2549C45.5832 101.993 38.2402 103.329 30.8971 102.394C24.8889 101.593 20.216 98.9229 17.2783 94.5164C13.0061 87.9742 12.6057 80.8975 16.2107 73.8213C18.7475 68.7475 22.7525 65.009 25.2893 63.1398C24.7553 61.4041 23.9541 58.4668 23.5537 56.3307C4.19426 70.35 6.19713 89.3094 12.0717 98.2549C16.4775 104.931 25.4229 109.07 35.3029 109.07C37.9729 109.07 40.643 108.803 43.3135 108.136C60.4033 104.798 73.3541 94.65 80.6971 79.5627V79.5627ZM104.195 63.0066C94.0484 51.1234 79.0951 44.5811 62.0053 44.5811H59.8693C58.6676 42.1779 56.1307 40.5754 53.327 40.5754H53.0598C48.9213 40.709 45.7172 44.1803 45.8504 48.3197C45.984 52.325 49.3217 55.5295 53.327 55.5295H53.5939C56.5311 55.3959 59.068 53.5266 60.1361 50.9898H62.5393C72.6865 50.9898 82.2992 53.927 90.9779 59.6684C97.6533 64.0746 102.46 69.816 105.13 76.7586C107.4 82.3664 107.266 87.8406 104.863 92.5139C101.125 99.5902 94.8496 103.462 86.5717 103.462C81.2311 103.462 76.1578 101.86 73.4873 100.658C72.0189 101.993 69.3484 104.13 67.4791 105.465C73.2205 108.135 79.0951 109.604 84.7025 109.604C97.5197 109.604 106.999 102.527 110.604 95.4512C114.476 87.707 114.209 74.3553 104.195 63.0066V63.0066ZM36.3709 81.832C36.5045 85.8377 39.8422 89.0418 43.8475 89.0418H44.1148C48.2537 88.9086 51.4578 85.4369 51.3242 81.2979C51.191 77.2922 47.8529 74.0881 43.8475 74.0881H43.5807C43.3135 74.0881 42.9127 74.0881 42.6463 74.2213C37.1721 65.1422 34.9025 55.2623 35.7037 44.5807C36.2373 36.5697 38.9078 29.6266 43.5807 23.8852C47.4525 18.9451 54.9291 16.5418 60.0029 16.4086C74.1549 16.1414 80.1627 33.7656 80.5635 40.8422C82.2992 41.2426 85.2365 42.1775 87.2393 42.8451C85.6369 21.2156 72.2857 10 59.4689 10C47.4525 10 36.3709 18.6787 31.9648 31.4963C25.8234 48.5865 29.8287 65.009 37.3053 77.9602C36.6381 78.8947 36.2373 80.3635 36.3709 81.8324V81.832Z" fill="#764ABC"/>
</svg>
