<svg width="429" height="79" viewBox="0 0 429 79" fill="none" xmlns="http://www.w3.org/2000/svg">
<mask id="mask0_140_23" style="mask-type:alpha" maskUnits="userSpaceOnUse" x="0" y="0" width="429" height="79">
<g clip-path="url(#clip0_140_23)">
<path d="M1.49834e-05 29.4749C1.49834e-05 13.2222 13.223 0 29.4765 0C45.6162 0 58.7683 13.0415 58.9483 29.1397L65.0291 43.1741C65.2425 43.6654 65.1939 44.2315 64.8993 44.6814C64.6047 45.1289 64.1047 45.3996 63.568 45.3996H58.9491V65.3492C58.9491 69.3694 55.679 72.6395 51.6596 72.6395H41.1939H41.1644H35.0693C30.9321 72.6395 27.5672 69.2738 27.5672 65.1374V36.4563C25.5416 35.7859 24.0749 33.8773 24.0749 31.6295C24.0749 29.3818 25.5416 27.474 27.5672 26.8028V19.7792C25.5416 19.1088 24.0749 17.2002 24.0749 14.9524C24.0749 12.1489 26.3545 9.86691 29.1596 9.86691C31.9648 9.86691 34.2468 12.1481 34.2468 14.9524C34.2468 17.2002 32.7785 19.1088 30.7521 19.7792V26.8028C32.7785 27.4724 34.2468 29.3818 34.2468 31.6295C34.2468 33.8773 32.7785 35.7867 30.7521 36.4563V65.1374C30.7521 67.5165 32.6885 69.4546 35.0693 69.4546H41.1644H41.1939H51.6596C53.9225 69.4546 55.7634 67.6137 55.7634 65.3492V43.8071C55.7634 42.9281 56.4768 42.2147 57.3558 42.2147H61.1411L55.8947 30.1079C55.8079 29.9081 55.7626 29.6923 55.7626 29.4749C55.7626 14.9787 43.9696 3.18493 29.4749 3.18493C14.9779 3.18493 3.18335 14.9787 3.18335 29.4749C3.18335 35.8711 5.50676 42.0236 9.72281 46.8193C9.75386 46.8487 9.7889 46.8718 9.81836 46.9037C13.8592 51.3323 16.0839 57.0724 16.0839 63.0688V76.7433C16.0839 77.6223 15.3705 78.3357 14.4914 78.3357C13.6124 78.3357 12.899 77.6223 12.899 76.7433V63.0712C12.899 57.9203 11.0039 52.9909 7.56582 49.1666C7.52362 49.1283 7.47903 49.0949 7.44001 49.0511C2.64192 43.655 1.49834e-05 36.7023 1.49834e-05 29.4749ZM29.1596 13.0526C28.1126 13.0526 27.2598 13.9054 27.2598 14.9532C27.2598 16.0011 28.1118 16.8539 29.1596 16.8539C30.2083 16.8539 31.0626 16.0011 31.0626 14.9532C31.0626 13.9046 30.2083 13.0526 29.1596 13.0526ZM29.1596 29.7297C28.1126 29.7297 27.2598 30.5825 27.2598 31.6303C27.2598 32.6782 28.1118 33.5309 29.1596 33.5309C30.2083 33.5309 31.0626 32.6782 31.0626 31.6303C31.0626 30.5817 30.2083 29.7297 29.1596 29.7297Z" fill="white"/>
<path d="M33.4322 23.2914C33.4322 20.4871 35.7143 18.2051 38.5194 18.2051C41.3245 18.2051 43.6065 20.4871 43.6065 23.2914C43.6065 25.5392 42.1383 27.4477 40.1118 28.1182V36.1076C40.1118 36.993 39.9016 37.8776 39.5051 38.669L35.1903 47.2628C35.0144 47.6123 34.922 48.0033 34.922 48.3934V65.6287C34.922 66.5077 34.2086 67.2211 33.3295 67.2211C32.4497 67.2211 31.7371 66.5077 31.7371 65.6287V48.3934C31.7371 47.5088 31.9465 46.6234 32.3438 45.8335L36.6578 37.2398C36.833 36.8911 36.9261 36.4985 36.9261 36.1076V28.1182C34.9005 27.4477 33.4322 25.5392 33.4322 23.2914ZM38.5186 21.39C37.4707 21.39 36.6164 22.2428 36.6164 23.2914C36.6164 24.3393 37.4699 25.192 38.5186 25.192C39.5672 25.192 40.4208 24.3393 40.4208 23.2914C40.4208 22.2428 39.5672 21.39 38.5186 21.39Z" fill="white"/>
<path d="M14.7144 23.2914C14.7144 20.4871 16.9956 18.2051 19.8015 18.2051C22.6074 18.2051 24.8886 20.4871 24.8886 23.2914C24.8886 25.5392 23.4204 27.4477 21.394 28.1182V36.1076C21.394 36.4993 21.4871 36.8911 21.6623 37.2398L25.9763 45.832C26.3736 46.6234 26.5838 47.508 26.5838 48.3934V65.6287C26.5838 66.5077 25.8704 67.2211 24.9913 67.2211C24.1123 67.2211 23.3989 66.5077 23.3989 65.6287V48.3934C23.3989 48.0033 23.3073 47.6131 23.1305 47.2628L18.8158 38.6683C18.4192 37.8776 18.209 36.993 18.209 36.1076V28.1182C16.1826 27.4477 14.7144 25.5392 14.7144 23.2914ZM19.8015 25.192C20.8493 25.192 21.7037 24.3393 21.7037 23.2914C21.7037 22.2428 20.8501 21.39 19.8015 21.39C18.7529 21.39 17.8993 22.2428 17.8993 23.2914C17.8993 24.3393 18.7536 25.192 19.8015 25.192Z" fill="white"/>
<path d="M96 27.92C98.96 27.92 101.547 28.5067 103.76 29.68C105.973 30.8533 107.68 32.5067 108.88 34.64C110.107 36.7467 110.72 39.1867 110.72 41.96C110.72 44.7067 110.107 47.1467 108.88 49.28C107.68 51.4133 105.96 53.0667 103.72 54.24C101.507 55.4133 98.9333 56 96 56H85.48V27.92H96ZM95.56 50.08C98.1467 50.08 100.16 49.3733 101.6 47.96C103.04 46.5467 103.76 44.5467 103.76 41.96C103.76 39.3733 103.04 37.36 101.6 35.92C100.16 34.48 98.1467 33.76 95.56 33.76H92.32V50.08H95.56ZM117.983 31.36C116.783 31.36 115.796 31.0133 115.023 30.32C114.276 29.6 113.903 28.72 113.903 27.68C113.903 26.6133 114.276 25.7333 115.023 25.04C115.796 24.32 116.783 23.96 117.983 23.96C119.156 23.96 120.116 24.32 120.863 25.04C121.636 25.7333 122.023 26.6133 122.023 27.68C122.023 28.72 121.636 29.6 120.863 30.32C120.116 31.0133 119.156 31.36 117.983 31.36ZM121.383 33.68V56H114.543V33.68H121.383ZM134.819 33.36C136.393 33.36 137.766 33.68 138.939 34.32C140.139 34.96 141.059 35.8 141.699 36.84V33.68H148.539V55.96C148.539 58.0133 148.126 59.8667 147.299 61.52C146.499 63.2 145.259 64.5333 143.579 65.52C141.926 66.5067 139.859 67 137.379 67C134.073 67 131.393 66.2133 129.339 64.64C127.286 63.0933 126.113 60.9867 125.819 58.32H132.579C132.793 59.1733 133.299 59.84 134.099 60.32C134.899 60.8267 135.886 61.08 137.059 61.08C138.473 61.08 139.593 60.6667 140.419 59.84C141.273 59.04 141.699 57.7467 141.699 55.96V52.8C141.033 53.84 140.113 54.6933 138.939 55.36C137.766 56 136.393 56.32 134.819 56.32C132.979 56.32 131.313 55.8533 129.819 54.92C128.326 53.96 127.139 52.6133 126.259 50.88C125.406 49.12 124.979 47.0933 124.979 44.8C124.979 42.5067 125.406 40.4933 126.259 38.76C127.139 37.0267 128.326 35.6933 129.819 34.76C131.313 33.8267 132.979 33.36 134.819 33.36ZM141.699 44.84C141.699 43.1333 141.219 41.7867 140.259 40.8C139.326 39.8133 138.179 39.32 136.819 39.32C135.459 39.32 134.299 39.8133 133.339 40.8C132.406 41.76 131.939 43.0933 131.939 44.8C131.939 46.5067 132.406 47.8667 133.339 48.88C134.299 49.8667 135.459 50.36 136.819 50.36C138.179 50.36 139.326 49.8667 140.259 48.88C141.219 47.8933 141.699 46.5467 141.699 44.84ZM156.928 31.36C155.728 31.36 154.741 31.0133 153.968 30.32C153.221 29.6 152.848 28.72 152.848 27.68C152.848 26.6133 153.221 25.7333 153.968 25.04C154.741 24.32 155.728 23.96 156.928 23.96C158.101 23.96 159.061 24.32 159.808 25.04C160.581 25.7333 160.968 26.6133 160.968 27.68C160.968 28.72 160.581 29.6 159.808 30.32C159.061 31.0133 158.101 31.36 156.928 31.36ZM160.328 33.68V56H153.488V33.68H160.328ZM177.725 50.2V56H174.245C171.765 56 169.831 55.4 168.445 54.2C167.058 52.9733 166.365 50.9867 166.365 48.24V39.36H163.645V33.68H166.365V28.24H173.205V33.68H177.685V39.36H173.205V48.32C173.205 48.9867 173.365 49.4667 173.685 49.76C174.005 50.0533 174.538 50.2 175.285 50.2H177.725ZM180.175 44.8C180.175 42.5067 180.601 40.4933 181.455 38.76C182.335 37.0267 183.521 35.6933 185.015 34.76C186.508 33.8267 188.175 33.36 190.015 33.36C191.588 33.36 192.961 33.68 194.135 34.32C195.335 34.96 196.255 35.8 196.895 36.84V33.68H203.735V56H196.895V52.84C196.228 53.88 195.295 54.72 194.095 55.36C192.921 56 191.548 56.32 189.975 56.32C188.161 56.32 186.508 55.8533 185.015 54.92C183.521 53.96 182.335 52.6133 181.455 50.88C180.601 49.12 180.175 47.0933 180.175 44.8ZM196.895 44.84C196.895 43.1333 196.415 41.7867 195.455 40.8C194.521 39.8133 193.375 39.32 192.015 39.32C190.655 39.32 189.495 39.8133 188.535 40.8C187.601 41.76 187.135 43.0933 187.135 44.8C187.135 46.5067 187.601 47.8667 188.535 48.88C189.495 49.8667 190.655 50.36 192.015 50.36C193.375 50.36 194.521 49.8667 195.455 48.88C196.415 47.8933 196.895 46.5467 196.895 44.84ZM215.523 26.4V56H208.683V26.4H215.523ZM250.357 36.96C250.357 38.5867 249.983 40.08 249.237 41.44C248.49 42.7733 247.343 43.8533 245.797 44.68C244.25 45.5067 242.33 45.92 240.037 45.92H235.797V56H228.957V27.92H240.037C242.277 27.92 244.17 28.3067 245.717 29.08C247.263 29.8533 248.423 30.92 249.197 32.28C249.97 33.64 250.357 35.2 250.357 36.96ZM239.517 40.48C240.823 40.48 241.797 40.1733 242.437 39.56C243.077 38.9467 243.397 38.08 243.397 36.96C243.397 35.84 243.077 34.9733 242.437 34.36C241.797 33.7467 240.823 33.44 239.517 33.44H235.797V40.48H239.517ZM264.078 56.32C261.891 56.32 259.918 55.8533 258.158 54.92C256.424 53.9867 255.051 52.6533 254.038 50.92C253.051 49.1867 252.558 47.16 252.558 44.84C252.558 42.5467 253.064 40.5333 254.077 38.8C255.091 37.04 256.478 35.6933 258.238 34.76C259.998 33.8267 261.971 33.36 264.158 33.36C266.344 33.36 268.318 33.8267 270.078 34.76C271.838 35.6933 273.224 37.04 274.238 38.8C275.251 40.5333 275.758 42.5467 275.758 44.84C275.758 47.1333 275.238 49.16 274.198 50.92C273.184 52.6533 271.784 53.9867 269.998 54.92C268.238 55.8533 266.264 56.32 264.078 56.32ZM264.078 50.4C265.384 50.4 266.491 49.92 267.398 48.96C268.331 48 268.798 46.6267 268.798 44.84C268.798 43.0533 268.344 41.68 267.438 40.72C266.558 39.76 265.464 39.28 264.158 39.28C262.824 39.28 261.718 39.76 260.838 40.72C259.958 41.6533 259.518 43.0267 259.518 44.84C259.518 46.6267 259.944 48 260.798 48.96C261.678 49.92 262.771 50.4 264.078 50.4ZM286.226 37.4C287.026 36.1733 288.026 35.2133 289.226 34.52C290.426 33.8 291.76 33.44 293.226 33.44V40.68H291.346C289.64 40.68 288.36 41.0533 287.506 41.8C286.653 42.52 286.226 43.8 286.226 45.64V56H279.386V33.68H286.226V37.4ZM308.936 50.2V56H305.456C302.976 56 301.042 55.4 299.656 54.2C298.269 52.9733 297.576 50.9867 297.576 48.24V39.36H294.856V33.68H297.576V28.24H304.416V33.68H308.896V39.36H304.416V48.32C304.416 48.9867 304.576 49.4667 304.896 49.76C305.216 50.0533 305.749 50.2 306.496 50.2H308.936ZM323.946 39.36H320.266V56H313.426V39.36H310.946V33.68H313.426V33.04C313.426 30.2933 314.212 28.2133 315.786 26.8C317.359 25.36 319.666 24.64 322.706 24.64C323.212 24.64 323.586 24.6533 323.826 24.68V30.48C322.519 30.4 321.599 30.5867 321.066 31.04C320.532 31.4933 320.266 32.3067 320.266 33.48V33.68H323.946V39.36ZM337.32 56.32C335.133 56.32 333.16 55.8533 331.4 54.92C329.666 53.9867 328.293 52.6533 327.28 50.92C326.293 49.1867 325.8 47.16 325.8 44.84C325.8 42.5467 326.306 40.5333 327.32 38.8C328.333 37.04 329.72 35.6933 331.48 34.76C333.24 33.8267 335.213 33.36 337.4 33.36C339.586 33.36 341.56 33.8267 343.32 34.76C345.08 35.6933 346.466 37.04 347.48 38.8C348.493 40.5333 349 42.5467 349 44.84C349 47.1333 348.48 49.16 347.44 50.92C346.426 52.6533 345.026 53.9867 343.24 54.92C341.48 55.8533 339.506 56.32 337.32 56.32ZM337.32 50.4C338.626 50.4 339.733 49.92 340.64 48.96C341.573 48 342.04 46.6267 342.04 44.84C342.04 43.0533 341.586 41.68 340.68 40.72C339.8 39.76 338.706 39.28 337.4 39.28C336.066 39.28 334.96 39.76 334.08 40.72C333.2 41.6533 332.76 43.0267 332.76 44.84C332.76 46.6267 333.186 48 334.04 48.96C334.92 49.92 336.013 50.4 337.32 50.4ZM359.468 26.4V56H352.628V26.4H359.468ZM367.865 31.36C366.665 31.36 365.679 31.0133 364.905 30.32C364.159 29.6 363.785 28.72 363.785 27.68C363.785 26.6133 364.159 25.7333 364.905 25.04C365.679 24.32 366.665 23.96 367.865 23.96C369.039 23.96 369.999 24.32 370.745 25.04C371.519 25.7333 371.905 26.6133 371.905 27.68C371.905 28.72 371.519 29.6 370.745 30.32C369.999 31.0133 369.039 31.36 367.865 31.36ZM371.265 33.68V56H364.425V33.68H371.265ZM386.382 56.32C384.196 56.32 382.222 55.8533 380.462 54.92C378.729 53.9867 377.356 52.6533 376.342 50.92C375.356 49.1867 374.862 47.16 374.862 44.84C374.862 42.5467 375.369 40.5333 376.382 38.8C377.396 37.04 378.782 35.6933 380.542 34.76C382.302 33.8267 384.276 33.36 386.462 33.36C388.649 33.36 390.622 33.8267 392.382 34.76C394.142 35.6933 395.529 37.04 396.542 38.8C397.556 40.5333 398.062 42.5467 398.062 44.84C398.062 47.1333 397.542 49.16 396.502 50.92C395.489 52.6533 394.089 53.9867 392.302 54.92C390.542 55.8533 388.569 56.32 386.382 56.32ZM386.382 50.4C387.689 50.4 388.796 49.92 389.702 48.96C390.636 48 391.102 46.6267 391.102 44.84C391.102 43.0533 390.649 41.68 389.742 40.72C388.862 39.76 387.769 39.28 386.462 39.28C385.129 39.28 384.022 39.76 383.142 40.72C382.262 41.6533 381.822 43.0267 381.822 44.84C381.822 46.6267 382.249 48 383.102 48.96C383.982 49.92 385.076 50.4 386.382 50.4Z" fill="white"/>
</g>
</mask>
<g mask="url(#mask0_140_23)">
<rect x="-23" y="-4" width="455" height="109" fill="url(#paint0_linear_140_23)"/>
</g>
<defs>
<linearGradient id="paint0_linear_140_23" x1="-23" y1="50" x2="432" y2="50" gradientUnits="userSpaceOnUse">
<stop stop-color="#13B0F5"/>
<stop offset="1" stop-color="#FF00B7"/>
</linearGradient>
<clipPath id="clip0_140_23">
<rect width="429" height="78.3358" fill="white"/>
</clipPath>
</defs>
</svg>
